<mxfile host="app.diagrams.net" modified="2020-09-14T14:13:58.238Z" agent="5.0 (X11; Linux x86_64) AppleWebKit/537.36 (KHTML, like Gecko) Chrome/85.0.4183.83 Safari/537.36" etag="N9aSVU0Foh6ihDytTRV7" version="13.6.9" type="github">
  <diagram id="UNjcXOiFNJjOu8oi0dRS" name="Page-1">
    <mxGraphModel dx="2062" dy="761" grid="1" gridSize="10" guides="1" tooltips="1" connect="1" arrows="1" fold="1" page="1" pageScale="1" pageWidth="827" pageHeight="1169" math="0" shadow="0">
      <root>
        <mxCell id="0" />
        <mxCell id="1" parent="0" />
        <mxCell id="2LmR6IETJDSdwjrf0GKa-2" value="" style="rounded=0;whiteSpace=wrap;html=1;" vertex="1" parent="1">
          <mxGeometry x="10" y="225" width="650" height="465" as="geometry" />
        </mxCell>
        <mxCell id="ASgy-5bXyXyF4e_x0ZIl-36" value="" style="rounded=0;whiteSpace=wrap;html=1;" parent="1" vertex="1">
          <mxGeometry x="414" y="240" width="166" height="420" as="geometry" />
        </mxCell>
        <mxCell id="ASgy-5bXyXyF4e_x0ZIl-9" value="" style="rounded=0;whiteSpace=wrap;html=1;" parent="1" vertex="1">
          <mxGeometry x="120" y="240" width="180" height="420" as="geometry" />
        </mxCell>
        <mxCell id="ASgy-5bXyXyF4e_x0ZIl-1" value="" style="rounded=0;whiteSpace=wrap;html=1;" parent="1" vertex="1">
          <mxGeometry x="160" y="260" width="20" height="170" as="geometry" />
        </mxCell>
        <mxCell id="ASgy-5bXyXyF4e_x0ZIl-2" value="Repository" style="text;html=1;strokeColor=none;fillColor=none;align=center;verticalAlign=middle;whiteSpace=wrap;rounded=0;rotation=-90;" parent="1" vertex="1">
          <mxGeometry x="100" y="335" width="140" height="20" as="geometry" />
        </mxCell>
        <mxCell id="ASgy-5bXyXyF4e_x0ZIl-3" value="" style="rounded=0;whiteSpace=wrap;html=1;" parent="1" vertex="1">
          <mxGeometry x="210" y="260" width="20" height="170" as="geometry" />
        </mxCell>
        <mxCell id="ASgy-5bXyXyF4e_x0ZIl-4" value="Service" style="text;html=1;strokeColor=none;fillColor=none;align=center;verticalAlign=middle;whiteSpace=wrap;rounded=0;rotation=-90;" parent="1" vertex="1">
          <mxGeometry x="150" y="335" width="140" height="20" as="geometry" />
        </mxCell>
        <mxCell id="ASgy-5bXyXyF4e_x0ZIl-5" value="" style="rounded=0;whiteSpace=wrap;html=1;" parent="1" vertex="1">
          <mxGeometry x="260" y="260" width="20" height="170" as="geometry" />
        </mxCell>
        <mxCell id="ASgy-5bXyXyF4e_x0ZIl-6" value="Resource" style="text;html=1;strokeColor=none;fillColor=none;align=center;verticalAlign=middle;whiteSpace=wrap;rounded=0;rotation=-90;" parent="1" vertex="1">
          <mxGeometry x="200" y="335" width="140" height="20" as="geometry" />
        </mxCell>
        <mxCell id="ASgy-5bXyXyF4e_x0ZIl-7" value="" style="endArrow=classic;startArrow=classic;html=1;exitX=0.5;exitY=1;exitDx=0;exitDy=0;" parent="1" source="ASgy-5bXyXyF4e_x0ZIl-2" edge="1">
          <mxGeometry width="50" height="50" relative="1" as="geometry">
            <mxPoint x="410" y="430" as="sourcePoint" />
            <mxPoint x="210" y="345" as="targetPoint" />
          </mxGeometry>
        </mxCell>
        <mxCell id="ASgy-5bXyXyF4e_x0ZIl-8" value="" style="endArrow=classic;startArrow=classic;html=1;exitX=0.5;exitY=1;exitDx=0;exitDy=0;" parent="1" source="ASgy-5bXyXyF4e_x0ZIl-4" edge="1">
          <mxGeometry width="50" height="50" relative="1" as="geometry">
            <mxPoint x="190" y="355" as="sourcePoint" />
            <mxPoint x="258" y="345" as="targetPoint" />
          </mxGeometry>
        </mxCell>
        <mxCell id="ASgy-5bXyXyF4e_x0ZIl-10" value="" style="shape=cylinder3;whiteSpace=wrap;html=1;boundedLbl=1;backgroundOutline=1;size=15;" parent="1" vertex="1">
          <mxGeometry x="30" y="305" width="60" height="80" as="geometry" />
        </mxCell>
        <mxCell id="ASgy-5bXyXyF4e_x0ZIl-11" value="" style="endArrow=classic;startArrow=classic;html=1;exitX=1;exitY=0.5;exitDx=0;exitDy=0;exitPerimeter=0;entryX=0.5;entryY=0;entryDx=0;entryDy=0;" parent="1" source="ASgy-5bXyXyF4e_x0ZIl-10" target="ASgy-5bXyXyF4e_x0ZIl-2" edge="1">
          <mxGeometry width="50" height="50" relative="1" as="geometry">
            <mxPoint x="370" y="410" as="sourcePoint" />
            <mxPoint x="420" y="360" as="targetPoint" />
          </mxGeometry>
        </mxCell>
        <mxCell id="ASgy-5bXyXyF4e_x0ZIl-12" value="back-end&lt;br&gt;" style="text;html=1;strokeColor=none;fillColor=none;align=center;verticalAlign=middle;whiteSpace=wrap;rounded=0;" parent="1" vertex="1">
          <mxGeometry x="120" y="240" width="70" height="20" as="geometry" />
        </mxCell>
        <mxCell id="ASgy-5bXyXyF4e_x0ZIl-13" value="Java com Spring" style="text;html=1;strokeColor=none;fillColor=none;align=center;verticalAlign=middle;whiteSpace=wrap;rounded=0;" parent="1" vertex="1">
          <mxGeometry x="130" y="630" width="110" height="20" as="geometry" />
        </mxCell>
        <mxCell id="ASgy-5bXyXyF4e_x0ZIl-14" value="" style="rounded=0;whiteSpace=wrap;html=1;" parent="1" vertex="1">
          <mxGeometry x="430" y="280" width="130" height="130" as="geometry" />
        </mxCell>
        <mxCell id="ASgy-5bXyXyF4e_x0ZIl-15" value="" style="rounded=0;whiteSpace=wrap;html=1;" parent="1" vertex="1">
          <mxGeometry x="430" y="490" width="140" height="130" as="geometry" />
        </mxCell>
        <mxCell id="ASgy-5bXyXyF4e_x0ZIl-16" value="Angular" style="text;html=1;strokeColor=none;fillColor=none;align=center;verticalAlign=middle;whiteSpace=wrap;rounded=0;" parent="1" vertex="1">
          <mxGeometry x="437.5" y="280" width="40" height="20" as="geometry" />
        </mxCell>
        <mxCell id="ASgy-5bXyXyF4e_x0ZIl-17" value="GWT" style="text;html=1;strokeColor=none;fillColor=none;align=center;verticalAlign=middle;whiteSpace=wrap;rounded=0;" parent="1" vertex="1">
          <mxGeometry x="430" y="490" width="40" height="20" as="geometry" />
        </mxCell>
        <mxCell id="ASgy-5bXyXyF4e_x0ZIl-18" value="" style="rounded=0;whiteSpace=wrap;html=1;" parent="1" vertex="1">
          <mxGeometry x="210" y="450" width="20" height="170" as="geometry" />
        </mxCell>
        <mxCell id="ASgy-5bXyXyF4e_x0ZIl-19" value="Command" style="text;html=1;strokeColor=none;fillColor=none;align=center;verticalAlign=middle;whiteSpace=wrap;rounded=0;rotation=-90;" parent="1" vertex="1">
          <mxGeometry x="150" y="525" width="140" height="20" as="geometry" />
        </mxCell>
        <mxCell id="ASgy-5bXyXyF4e_x0ZIl-20" value="" style="rounded=0;whiteSpace=wrap;html=1;" parent="1" vertex="1">
          <mxGeometry x="260" y="450" width="20" height="170" as="geometry" />
        </mxCell>
        <mxCell id="ASgy-5bXyXyF4e_x0ZIl-21" value="Service" style="text;html=1;strokeColor=none;fillColor=none;align=center;verticalAlign=middle;whiteSpace=wrap;rounded=0;rotation=-90;" parent="1" vertex="1">
          <mxGeometry x="200" y="525" width="140" height="20" as="geometry" />
        </mxCell>
        <mxCell id="ASgy-5bXyXyF4e_x0ZIl-22" value="" style="endArrow=classic;startArrow=classic;html=1;exitX=0.5;exitY=1;exitDx=0;exitDy=0;" parent="1" source="ASgy-5bXyXyF4e_x0ZIl-19" edge="1">
          <mxGeometry width="50" height="50" relative="1" as="geometry">
            <mxPoint x="190" y="545" as="sourcePoint" />
            <mxPoint x="258" y="535" as="targetPoint" />
          </mxGeometry>
        </mxCell>
        <mxCell id="ASgy-5bXyXyF4e_x0ZIl-23" value="" style="endArrow=classic;startArrow=classic;html=1;exitX=1;exitY=0;exitDx=0;exitDy=52.5;exitPerimeter=0;entryX=0.5;entryY=0;entryDx=0;entryDy=0;" parent="1" source="ASgy-5bXyXyF4e_x0ZIl-10" target="ASgy-5bXyXyF4e_x0ZIl-19" edge="1">
          <mxGeometry width="50" height="50" relative="1" as="geometry">
            <mxPoint x="100" y="355" as="sourcePoint" />
            <mxPoint x="170" y="355" as="targetPoint" />
          </mxGeometry>
        </mxCell>
        <mxCell id="ASgy-5bXyXyF4e_x0ZIl-24" value="" style="rounded=0;whiteSpace=wrap;html=1;" parent="1" vertex="1">
          <mxGeometry x="445" y="525" width="25" height="80" as="geometry" />
        </mxCell>
        <mxCell id="ASgy-5bXyXyF4e_x0ZIl-25" value="Client" style="text;html=1;strokeColor=none;fillColor=none;align=center;verticalAlign=middle;whiteSpace=wrap;rounded=0;rotation=-90;" parent="1" vertex="1">
          <mxGeometry x="440" y="555" width="40" height="20" as="geometry" />
        </mxCell>
        <mxCell id="ASgy-5bXyXyF4e_x0ZIl-26" value="" style="rounded=0;whiteSpace=wrap;html=1;" parent="1" vertex="1">
          <mxGeometry x="500" y="505" width="60" height="100" as="geometry" />
        </mxCell>
        <mxCell id="ASgy-5bXyXyF4e_x0ZIl-27" value="presenter&lt;br&gt;view&lt;br&gt;view.ui.xml" style="text;html=1;strokeColor=none;fillColor=none;align=center;verticalAlign=middle;whiteSpace=wrap;rounded=0;rotation=0;" parent="1" vertex="1">
          <mxGeometry x="510" y="555" width="40" height="20" as="geometry" />
        </mxCell>
        <mxCell id="ASgy-5bXyXyF4e_x0ZIl-28" value="" style="endArrow=classic;startArrow=classic;html=1;entryX=0.02;entryY=0.62;entryDx=0;entryDy=0;exitX=1;exitY=0.5;exitDx=0;exitDy=0;entryPerimeter=0;" parent="1" source="ASgy-5bXyXyF4e_x0ZIl-24" target="ASgy-5bXyXyF4e_x0ZIl-26" edge="1">
          <mxGeometry width="50" height="50" relative="1" as="geometry">
            <mxPoint x="370" y="370" as="sourcePoint" />
            <mxPoint x="420" y="320" as="targetPoint" />
          </mxGeometry>
        </mxCell>
        <mxCell id="ASgy-5bXyXyF4e_x0ZIl-29" value="" style="shape=flexArrow;endArrow=classic;startArrow=classic;html=1;" parent="1" edge="1">
          <mxGeometry width="50" height="50" relative="1" as="geometry">
            <mxPoint x="305" y="545" as="sourcePoint" />
            <mxPoint x="415" y="545" as="targetPoint" />
            <Array as="points">
              <mxPoint x="365" y="545" />
            </Array>
          </mxGeometry>
        </mxCell>
        <mxCell id="ASgy-5bXyXyF4e_x0ZIl-33" value="REST&lt;br&gt;(http)" style="text;html=1;strokeColor=none;fillColor=none;align=center;verticalAlign=middle;whiteSpace=wrap;rounded=0;" parent="1" vertex="1">
          <mxGeometry x="340" y="285" width="40" height="20" as="geometry" />
        </mxCell>
        <mxCell id="ASgy-5bXyXyF4e_x0ZIl-34" value="" style="shape=flexArrow;endArrow=classic;startArrow=classic;html=1;" parent="1" edge="1">
          <mxGeometry width="50" height="50" relative="1" as="geometry">
            <mxPoint x="305" y="320" as="sourcePoint" />
            <mxPoint x="415" y="320" as="targetPoint" />
            <Array as="points">
              <mxPoint x="365" y="320" />
            </Array>
          </mxGeometry>
        </mxCell>
        <mxCell id="ASgy-5bXyXyF4e_x0ZIl-35" value="REST&lt;br&gt;(http)" style="text;html=1;strokeColor=none;fillColor=none;align=center;verticalAlign=middle;whiteSpace=wrap;rounded=0;" parent="1" vertex="1">
          <mxGeometry x="340" y="510" width="40" height="20" as="geometry" />
        </mxCell>
        <mxCell id="ASgy-5bXyXyF4e_x0ZIl-37" value="front-end" style="text;html=1;strokeColor=none;fillColor=none;align=center;verticalAlign=middle;whiteSpace=wrap;rounded=0;" parent="1" vertex="1">
          <mxGeometry x="420" y="240" width="60" height="20" as="geometry" />
        </mxCell>
        <mxCell id="ASgy-5bXyXyF4e_x0ZIl-38" value="" style="rounded=0;whiteSpace=wrap;html=1;" parent="1" vertex="1">
          <mxGeometry x="414" y="20" width="216" height="120" as="geometry" />
        </mxCell>
        <mxCell id="ASgy-5bXyXyF4e_x0ZIl-39" value="http://www.sonner.com.br:4200/GRP" style="text;html=1;strokeColor=none;fillColor=none;align=center;verticalAlign=middle;whiteSpace=wrap;rounded=0;" parent="1" vertex="1">
          <mxGeometry x="492" y="20" width="40" height="20" as="geometry" />
        </mxCell>
        <mxCell id="ASgy-5bXyXyF4e_x0ZIl-40" value="Navegador" style="text;html=1;strokeColor=none;fillColor=none;align=center;verticalAlign=middle;whiteSpace=wrap;rounded=0;" parent="1" vertex="1">
          <mxGeometry x="482" y="100" width="40" height="20" as="geometry" />
        </mxCell>
        <mxCell id="ASgy-5bXyXyF4e_x0ZIl-41" value="" style="shape=flexArrow;endArrow=classic;startArrow=classic;html=1;width=14;endSize=5.33;" parent="1" edge="1">
          <mxGeometry width="50" height="50" relative="1" as="geometry">
            <mxPoint x="502" y="210" as="sourcePoint" />
            <mxPoint x="502" y="150" as="targetPoint" />
            <Array as="points">
              <mxPoint x="502" y="160" />
            </Array>
          </mxGeometry>
        </mxCell>
        <mxCell id="ASgy-5bXyXyF4e_x0ZIl-42" value="http" style="text;html=1;strokeColor=none;fillColor=none;align=center;verticalAlign=middle;whiteSpace=wrap;rounded=0;" parent="1" vertex="1">
          <mxGeometry x="520" y="170" width="40" height="20" as="geometry" />
        </mxCell>
        <mxCell id="ASgy-5bXyXyF4e_x0ZIl-43" value="" style="rounded=0;whiteSpace=wrap;html=1;" parent="1" vertex="1">
          <mxGeometry x="437" y="320" width="23" height="80" as="geometry" />
        </mxCell>
        <mxCell id="ASgy-5bXyXyF4e_x0ZIl-44" value="Service" style="text;html=1;strokeColor=none;fillColor=none;align=center;verticalAlign=middle;whiteSpace=wrap;rounded=0;rotation=-90;" parent="1" vertex="1">
          <mxGeometry x="428.5" y="350" width="40" height="20" as="geometry" />
        </mxCell>
        <mxCell id="ASgy-5bXyXyF4e_x0ZIl-45" value="" style="rounded=0;whiteSpace=wrap;html=1;" parent="1" vertex="1">
          <mxGeometry x="492" y="295" width="60" height="100" as="geometry" />
        </mxCell>
        <mxCell id="ASgy-5bXyXyF4e_x0ZIl-46" value="" style="endArrow=classic;startArrow=classic;html=1;entryX=0.02;entryY=0.62;entryDx=0;entryDy=0;exitX=1;exitY=0.5;exitDx=0;exitDy=0;entryPerimeter=0;" parent="1" target="ASgy-5bXyXyF4e_x0ZIl-45" edge="1">
          <mxGeometry width="50" height="50" relative="1" as="geometry">
            <mxPoint x="462" y="355" as="sourcePoint" />
            <mxPoint x="412" y="110" as="targetPoint" />
          </mxGeometry>
        </mxCell>
        <mxCell id="ASgy-5bXyXyF4e_x0ZIl-47" value="ts&lt;br&gt;html&lt;br&gt;css" style="text;html=1;strokeColor=none;fillColor=none;align=center;verticalAlign=middle;whiteSpace=wrap;rounded=0;rotation=0;" parent="1" vertex="1">
          <mxGeometry x="502" y="335" width="40" height="20" as="geometry" />
        </mxCell>
        <mxCell id="ASgy-5bXyXyF4e_x0ZIl-48" value="http://localhost:8080" style="text;html=1;strokeColor=none;fillColor=none;align=center;verticalAlign=middle;whiteSpace=wrap;rounded=0;" parent="1" vertex="1">
          <mxGeometry x="340" y="335" width="40" height="20" as="geometry" />
        </mxCell>
        <mxCell id="ASgy-5bXyXyF4e_x0ZIl-49" value="http://localhost:8080" style="text;html=1;strokeColor=none;fillColor=none;align=center;verticalAlign=middle;whiteSpace=wrap;rounded=0;" parent="1" vertex="1">
          <mxGeometry x="340" y="565" width="40" height="20" as="geometry" />
        </mxCell>
        <mxCell id="2LmR6IETJDSdwjrf0GKa-1" value="Cliente" style="text;html=1;strokeColor=none;fillColor=none;align=center;verticalAlign=middle;whiteSpace=wrap;rounded=0;" vertex="1" parent="1">
          <mxGeometry x="590" y="120" width="40" height="20" as="geometry" />
        </mxCell>
        <mxCell id="2LmR6IETJDSdwjrf0GKa-3" value="Servidor" style="text;html=1;strokeColor=none;fillColor=none;align=center;verticalAlign=middle;whiteSpace=wrap;rounded=0;" vertex="1" parent="1">
          <mxGeometry x="610" y="670" width="40" height="20" as="geometry" />
        </mxCell>
      </root>
    </mxGraphModel>
  </diagram>
</mxfile>
